<?xml version="1.0" standalone="no"?>
<!DOCTYPE svg PUBLIC "-//W3C//DTD SVG 20010904//EN"
 "http://www.w3.org/TR/2001/REC-SVG-20010904/DTD/svg10.dtd">
<svg version="1.0" xmlns="http://www.w3.org/2000/svg"
 width="260.000000pt" height="260.000000pt" viewBox="0 0 260.000000 260.000000"
 preserveAspectRatio="xMidYMid meet">
<metadata>
Created by potrace 1.14, written by Peter Selinger 2001-2017
</metadata>
<g transform="translate(0.000000,260.000000) scale(0.100000,-0.100000)"
fill="#000000" stroke="none">
<path d="M1625 2416 c-16 -6 -32 -13 -35 -16 -3 -3 -21 -6 -40 -8 -19 -2 -39
-8 -44 -13 -6 -5 -18 -9 -28 -9 -10 0 -27 -8 -38 -17 -11 -10 -24 -18 -28 -19
-4 0 -15 -4 -24 -7 -10 -4 -26 -10 -35 -14 -10 -3 -22 -5 -26 -4 -5 1 -6 -3
-3 -8 8 -12 -20 -34 -33 -26 -7 4 -8 -1 -4 -11 4 -11 2 -15 -4 -11 -6 4 -29
-11 -52 -33 -23 -22 -39 -40 -36 -40 2 0 -7 -11 -21 -25 -14 -14 -33 -25 -43
-25 -16 0 -32 -24 -46 -72 -1 -5 -4 -10 -5 -13 -3 -7 -7 -23 -9 -36 0 -6 -8
-9 -16 -5 -8 3 -14 2 -14 -2 4 -22 -4 -32 -24 -32 -13 0 -29 6 -36 13 -11 10
-12 9 -5 -3 6 -12 2 -11 -19 3 -29 19 -57 23 -57 7 0 -5 -17 -12 -37 -17 -49
-9 -53 -10 -55 -12 -2 -2 -13 -4 -26 -7 -15 -3 -21 0 -16 7 9 16 -29 -6 -45
-25 -9 -11 -19 -13 -37 -6 -19 7 -24 6 -24 -5 0 -8 -7 -15 -15 -15 -8 0 -34
-18 -56 -40 -23 -22 -38 -40 -34 -40 12 0 -36 -35 -72 -54 -18 -9 -33 -21 -33
-27 0 -5 -13 -23 -29 -38 -16 -16 -27 -31 -25 -34 3 -3 0 -15 -6 -27 -6 -12
-14 -34 -16 -48 -3 -15 -9 -28 -14 -30 -5 -2 -6 -10 -3 -19 4 -11 2 -14 -5 -9
-8 5 -14 -3 -18 -23 -4 -17 -10 -28 -14 -26 -5 3 -6 -4 -3 -15 3 -11 0 -20 -6
-20 -6 0 -10 -6 -9 -12 2 -7 -2 -12 -8 -11 -63 12 -64 12 -64 -6 0 -10 -3 -21
-8 -25 -13 -13 -8 -31 13 -42 11 -6 19 -16 17 -22 -1 -7 5 -12 14 -12 10 0 14
-5 10 -16 -3 -9 -2 -12 5 -9 12 8 60 -40 50 -51 -3 -4 -1 -5 4 -2 16 9 55 -10
55 -27 0 -8 8 -15 18 -15 9 0 30 -7 45 -15 15 -8 25 -10 22 -5 -4 6 -1 10 5
10 7 0 9 -8 4 -22 -4 -13 -8 -32 -9 -44 -2 -11 -9 -47 -16 -80 -7 -32 -12 -62
-11 -67 1 -4 -1 -7 -5 -7 -5 0 -9 -11 -9 -25 -1 -14 -5 -33 -10 -43 -4 -9 -8
-19 -8 -22 -1 -3 -8 -33 -16 -67 -8 -34 -16 -60 -19 -58 -3 2 -7 -7 -7 -18 -4
-52 -9 -67 -21 -63 -7 3 -15 1 -18 -5 -4 -5 -1 -8 6 -7 6 2 14 -3 17 -11 3 -9
0 -11 -8 -6 -9 5 -11 4 -6 -4 4 -7 2 -35 -5 -64 -7 -29 -12 -55 -11 -59 1 -5
-2 -8 -7 -8 -5 0 -9 -6 -8 -12 1 -42 -4 -68 -13 -63 -6 3 -10 1 -10 -4 0 -6 4
-11 9 -11 5 0 7 -9 4 -20 -3 -11 -10 -17 -17 -13 -8 5 -8 3 0 -8 16 -22 -3
-119 -24 -120 -11 0 -13 -2 -4 -6 8 -3 10 -9 3 -16 -9 -12 -11 -18 -11 -38 0
-5 -6 -7 -12 -3 -9 6 -9 3 0 -9 8 -9 11 -21 7 -27 -4 -6 -8 -29 -10 -50 -2
-21 -8 -47 -14 -58 -6 -12 -11 -30 -11 -41 0 -21 1 -21 488 -21 l489 0 56 56
c34 33 62 52 69 48 6 -4 8 -3 4 4 -7 11 69 93 79 84 3 -3 5 3 5 12 0 12 5 16
16 12 8 -3 13 -2 10 3 -7 12 39 53 49 44 4 -5 5 -3 2 3 -7 11 29 51 42 47 3
-2 6 1 6 6 0 16 94 103 105 96 5 -3 7 0 4 9 -6 16 28 40 40 28 4 -3 4 2 0 13
-4 11 -4 17 0 14 3 -3 26 12 49 33 23 22 49 46 57 53 9 8 45 12 92 12 48 0 84
5 93 13 8 7 15 9 15 5 0 -4 6 -3 13 3 7 6 26 14 42 17 17 3 35 7 40 8 6 1 21
10 35 20 13 9 31 17 38 17 12 0 12 -3 1 -18 -13 -15 -12 -16 3 -3 10 7 15 17
12 22 -3 5 0 10 5 10 6 1 14 2 19 3 13 3 115 95 122 111 3 6 9 9 13 7 5 -1 6
2 2 7 -3 6 8 37 25 71 17 33 30 62 30 65 0 3 0 6 1 8 3 9 10 55 10 70 0 10 5
15 11 11 7 -5 8 -2 3 6 -4 7 -9 29 -11 49 -5 56 -11 84 -23 114 -6 15 -7 27
-3 27 4 0 1 4 -5 8 -7 4 -14 18 -15 31 -2 13 -15 37 -30 53 -16 17 -28 35 -28
42 0 6 -9 18 -20 26 -11 8 -20 20 -20 27 0 7 -4 13 -10 13 -5 0 -10 6 -10 14
0 8 -5 16 -12 18 -6 2 -8 10 -4 17 6 9 11 9 22 0 11 -9 13 -9 9 2 -6 19 4 32
38 47 22 9 27 18 25 40 -2 23 -6 28 -20 24 -10 -2 -18 1 -18 7 0 7 -4 9 -10 6
-6 -4 -9 7 -7 27 2 24 8 33 20 32 9 -1 17 2 17 7 0 5 -4 9 -10 9 -12 0 5 46
24 66 8 8 13 23 11 34 -2 11 0 22 5 25 4 3 6 15 2 27 -4 17 -2 20 11 15 17 -7
17 -5 -12 51 -6 12 -7 22 -2 22 10 0 10 32 -1 40 -4 3 -8 17 -10 30 -2 14 -11
41 -20 60 -8 19 -16 45 -16 58 0 12 -8 29 -16 38 -9 8 -16 22 -16 30 0 8 -7
14 -16 14 -10 0 -14 5 -10 16 3 8 2 12 -4 9 -5 -3 -18 3 -30 15 -11 11 -20 18
-20 16 0 -3 -17 13 -38 35 -22 21 -44 39 -50 39 -7 0 -12 5 -12 10 0 6 -7 10
-15 10 -8 0 -15 5 -15 12 0 6 -3 9 -6 5 -3 -3 -22 3 -42 13 -19 11 -55 22 -79
26 -34 5 -43 10 -38 22 5 12 3 13 -10 2 -13 -11 -26 -11 -63 -2 -26 6 -58 10
-72 8 -14 -1 -34 1 -45 4 -11 4 -33 2 -50 -4z"/>
<path d="M2149 2283 c-13 -16 -12 -17 4 -4 9 7 17 15 17 17 0 8 -8 3 -21 -13z"/>
<path d="M1016 2022 c-2 -4 -1 -14 4 -22 7 -11 9 -9 7 8 -1 24 -3 26 -11 14z"/>
<path d="M2310 1376 c0 -2 8 -10 18 -17 15 -13 16 -12 3 4 -13 16 -21 21 -21
13z"/>
<path d="M430 1040 c0 -5 5 -10 11 -10 5 0 7 5 4 10 -3 6 -8 10 -11 10 -2 0
-4 -4 -4 -10z"/>
<path d="M340 826 c0 -2 8 -10 18 -17 15 -13 16 -12 3 4 -13 16 -21 21 -21 13z"/>
<path d="M247 299 c7 -7 15 -10 18 -7 3 3 -2 9 -12 12 -14 6 -15 5 -6 -5z"/>
</g>
</svg>
