<svg xmlns="http://www.w3.org/2000/svg" aria-hidden="true" style="position:absolute;width:0;height:0;overflow:hidden">
  <defs>
  
    <symbol id="close-white" viewBox="0 0 32 32">
      <path fill="#fcfcfc" d="M23.884 6.706 16 14.59 8.116 6.706a.995.995 0 0 0-1.38.031 1 1 0 0 0-.031 1.38l7.88 7.884-7.882 7.882a1.002 1.002 0 0 0-.018 1.427.998.998 0 0 0 1.427-.015l7.886-7.882 7.884 7.884a1 1 0 0 0 1.38-.03 1 1 0 0 0 .03-1.38l-7.884-7.884 7.884-7.886a1.002 1.002 0 0 0 .018-1.427.998.998 0 0 0-1.427.015v.002z" style="fill:var(--color2, #fcfcfc)"/>
    </symbol>
    <symbol id="arrow" viewBox="0 0 82 32">
      <path d="M81.414 17.414a2 2 0 0 0 0-2.828L68.686 1.858a2 2 0 1 0-2.828 2.828L77.172 16 65.858 27.314a2 2 0 1 0 2.828 2.828l12.728-12.728zM0 18h80v-4H0v4z"/>
    </symbol>
   <symbol id="facebook" viewBox="0 0 16 32">
      <path d="M14.143 15.972h-4.034v14.865h-6.112v-14.865h-2.907v-5.224h2.907v-3.381c0-2.418 1.142-6.203 6.166-6.203l4.527 0.019v5.071h-3.285c-0.539 0-1.296 0.271-1.296 1.424v3.075h4.567l-0.534 5.219z"></path>
    </symbol>
    <symbol id="github" viewBox="0 0 32 32">
      <path d="M16 0c-8.788 0-16 7.212-16 16 0 7.499 5.262 14.312 12.25 16v-5.293c-0.692 0.152-1.33 0.156-2.034-0.052-0.946-0.279-1.714-0.909-2.284-1.869-0.364-0.613-1.008-1.278-1.68-1.23l-0.165-1.868c1.453-0.124 2.711 0.886 3.457 2.14 0.332 0.558 0.713 0.884 1.203 1.029 0.473 0.14 0.982 0.072 1.574-0.137 0.149-1.186 0.692-1.63 1.102-2.255v-0.001c-4.167-0.622-5.828-2.832-6.488-4.578-0.874-2.317-0.405-5.212 1.14-7.041 0.030-0.036 0.084-0.129 0.063-0.194-0.708-2.139 0.155-3.909 0.187-4.097 0.817 0.242 0.95-0.243 3.551 1.337l0.449 0.27c0.188 0.112 0.129 0.048 0.317 0.034 1.086-0.295 2.23-0.458 3.358-0.472 1.136 0.015 2.273 0.178 3.404 0.484l0.145 0.015c-0.013-0.002 0.040-0.009 0.127-0.062 3.248-1.968 3.132-1.324 4.003-1.608 0.032 0.188 0.883 1.987 0.182 4.099-0.095 0.291 2.816 2.956 1.203 7.235-0.659 1.746-2.32 3.957-6.487 4.578v0.001c0.534 0.814 1.176 1.247 1.173 2.927v6.608c6.988-1.688 12.25-8.501 12.25-16 0-8.788-7.212-16-16-16v0z"></path>
    </symbol>
    <symbol id="telegram" viewBox="0 0 44 32">
      <path d="M17.343 21.048l-0.675 8.86c0.966 0 1.384-0.387 1.885-0.852l4.527-4.038 9.381 6.412c1.72 0.895 2.933 0.424 3.397-1.477l6.157-26.929 0.002-0.002c0.546-2.374-0.92-3.302-2.596-2.72l-36.194 12.933c-2.47 0.895-2.433 2.18-0.42 2.762l9.253 2.686 21.494-12.552c1.012-0.625 1.931-0.279 1.175 0.346l-17.386 14.57z"></path>
    </symbol>
    <symbol id="close-black" viewBox="0 0 32 32">
      <path d="m17.253 16 7.369-7.369a.885.885 0 0 0-.047-1.206.893.893 0 0 0-1.207-.047l-7.369 7.369L8.63 7.369a.892.892 0 0 0-1.262 1.262L14.746 16l-7.378 7.369a.891.891 0 0 0-.05 1.304.906.906 0 0 0 .663.26.88.88 0 0 0 .641-.31L16 17.254l7.369 7.369a.886.886 0 0 0 1.207-.047.893.893 0 0 0 .047-1.207L17.254 16z"/>
    </symbol>
    <symbol id="bird" viewBox="0 0 32 32">
      <path d="M10.586 3.272a2 2 0 0 0 0 2.828l9.9 9.9-9.9 9.9a1.998 1.998 0 0 0 .025 2.804 2.001 2.001 0 0 0 2.804.025l11.314-11.314a2 2 0 0 0 0-2.828L13.415 3.273a2 2 0 0 0-2.828 0z"/>
    </symbol>
    <symbol id="burger1" viewBox="0 0 32 32">
      <path d="M26.733 14H5.266c-.7 0-1.267.425-1.267.95v.1c0 .525.567.95 1.267.95h21.467c.7 0 1.267-.425 1.267-.95v-.1c0-.525-.567-.95-1.267-.95zM26.733 20H5.266c-.7 0-1.267.425-1.267.95v.1c0 .525.567.95 1.267.95h21.467c.7 0 1.267-.425 1.267-.95v-.1c0-.525-.567-.95-1.267-.95zM26.733 8H5.266c-.7 0-1.267.425-1.267.95v.1c0 .525.567.95 1.267.95h21.467c.7 0 1.267-.425 1.267-.95v-.1c0-.525-.567-.95-1.267-.95z"/>
    </symbol>
    <symbol id="feature1" width="36" height="36" viewBox="0 0 36 36" fill="none" xmlns="http://www.w3.org/2000/svg">
      <g clip-path="url(#clip0_11708_12398)">
      <path d="M6.93937 0.216297C6.64615 0.469917 5.80724 2.21992 5.50588 3.17524C5.14751 4.35881 5.02534 5.24649 5.07421 6.47234C5.13937 8.22233 5.57919 9.54963 6.54842 10.9361C6.80091 11.2996 7.00453 11.6124 7.00453 11.6378C7.00453 11.6547 6.84977 11.6716 6.6543 11.6716C5.81538 11.6716 4.24344 11.9506 3.03801 12.3141C1.12398 12.889 0 13.895 0 15.0194C0 15.4168 0.358371 16.0931 0.741176 16.4397C1.48235 17.1076 3.10317 17.7417 4.84615 18.046C5.44887 18.1559 7.24072 18.3419 7.63982 18.3504C7.71312 18.3504 7.73756 18.7392 7.73756 20.0158C7.73756 21.1148 7.77828 21.9687 7.85973 22.4929C8.15294 24.3697 9.06516 26.3564 10.2706 27.7598L10.686 28.2417L10.409 28.6897C10.0018 29.3238 9.84706 29.8057 9.79819 30.5243C9.67602 32.2489 10.7511 33.7791 12.8281 34.8528C16.7864 36.9071 22.9357 36.104 25.2407 33.2296C26.3647 31.8262 26.495 30.2199 25.6072 28.7658L25.3303 28.3177L25.8272 27.7175C26.7557 26.6016 27.3584 25.4856 27.8145 24.0738C28.1973 22.8733 28.3439 21.7151 28.3439 19.8805C28.3439 19.0436 28.3683 18.3504 28.4091 18.3504C28.7837 18.3419 30.5837 18.1475 31.1538 18.046C32.905 17.7417 34.4932 17.1161 35.2588 16.4397C35.6416 16.0931 36 15.4168 36 15.0194C36 13.7682 34.7294 12.7537 32.3674 12.145C31.5937 11.9421 30.1357 11.697 29.4272 11.6547L29.0932 11.6293L29.4597 11.1221C29.9158 10.5049 30.486 9.30446 30.7059 8.51823C31.3249 6.24407 30.9421 3.59794 29.6145 1.07016C29.0606 0.0218506 28.6778 -0.223316 28.2299 0.190933C28.0588 0.351562 27.9855 0.571369 27.8226 1.36605C27.3176 3.89383 26.381 5.89746 25.0127 7.37692L24.41 8.03634H17.9674H11.5249L10.9873 7.45301C9.65158 5.982 8.68235 3.90229 8.17738 1.36605C8.01448 0.571369 7.94118 0.351562 7.77014 0.190933C7.50136 -0.0542336 7.24072 -0.0457802 6.93937 0.216297ZM7.9819 5.22958C8.41358 6.17644 8.95113 7.06412 9.58643 7.88417L10.0914 8.53514L9.56199 8.93248C9.06516 9.31291 8.60091 9.85398 8.24253 10.4711L8.08778 10.7501L7.69683 10.2175C6.36109 8.37451 6.02715 6.11726 6.73575 3.77547C7.07783 2.64263 7.06968 2.65108 7.37919 3.63176C7.52579 4.10519 7.80272 4.82378 7.9819 5.22958ZM29.1828 3.44577C29.5167 4.45181 29.6471 5.25494 29.6471 6.2948C29.6471 7.83345 29.2398 9.13538 28.3846 10.302L28.0018 10.8262L27.7167 10.3443C27.3828 9.75253 26.8127 9.13538 26.2914 8.78031C26.0715 8.63659 25.9005 8.49287 25.9005 8.47596C25.9005 8.4506 26.0552 8.25615 26.2507 8.0448C27.1548 7.03876 28.124 5.22958 28.6045 3.67403C28.7511 3.19214 28.8977 2.7948 28.9222 2.7948C28.9466 2.7948 29.0688 3.09069 29.1828 3.44577ZM25.0208 9.62572C25.9249 10.0062 26.7882 11.0967 26.9267 12.0182C27 12.5255 27.171 12.8467 27.391 12.8975C27.4887 12.9144 28.1647 12.9735 28.8896 13.0243C31.4634 13.1933 33.4914 13.7429 34.3548 14.4953C34.7538 14.8504 34.7131 15.1462 34.2326 15.5098C33.2715 16.2368 31.1946 16.7863 29.0769 16.8793C27.676 16.9385 27.3828 16.9808 27.1955 17.1752C27.057 17.319 27.0407 17.4711 27.0407 19.0013C27.0407 21.0726 26.9348 22.2646 26.6742 23.2284C26.3077 24.5388 25.5828 25.9337 24.7357 26.9228L24.3855 27.3286L23.6606 26.8974C22.781 26.3733 21.9584 26.0351 20.9729 25.8069C17.886 25.0714 14.4733 25.5194 12.1765 26.9651L11.6471 27.3032L11.3131 26.9059C10.857 26.3733 10.1403 25.232 9.8552 24.5895C9.22806 23.1354 9.04072 21.9518 9.04072 19.3479C9.04072 16.8202 9.17104 17.0061 7.29774 16.9047C4.90317 16.7779 3.07873 16.3467 1.93032 15.6197C1.08326 15.0786 1.22172 14.5967 2.40271 14.0303C3.53484 13.4808 5.0905 13.1511 7.24887 13.0158C8.9267 12.9059 8.96742 12.8805 9.12217 12.069C9.35023 10.8431 10.2543 9.82862 11.3946 9.50736C11.6796 9.42282 13.276 9.40591 18.1629 9.41436L24.5566 9.43127L25.0208 9.62572ZM20.4434 27.1257C22.4389 27.616 23.9294 28.5291 24.5729 29.6619C24.7276 29.924 24.7928 30.1945 24.8253 30.6088C24.8579 31.1245 24.8335 31.2513 24.638 31.674C23.7339 33.5931 20.4109 34.8612 17.0308 34.5738C12.9665 34.2356 10.295 31.9699 11.3457 29.7465C11.9158 28.546 13.8462 27.3962 15.8824 27.0581C16.2163 27.0074 16.5502 26.9482 16.6154 26.9313C16.6805 26.9144 17.4136 26.9144 18.2443 26.9313C19.3765 26.9566 19.9222 27.0074 20.4434 27.1257Z" fill="#131313"/>
      <path d="M12.364 13.8613C11.859 14.0304 11.5169 14.2502 11.0608 14.7067C10.6617 15.0871 10.6291 15.5352 10.9631 15.8057C11.2726 16.0593 11.5658 16.0255 11.9404 15.6958C12.4128 15.2816 12.7793 15.1125 13.2355 15.1125C13.6916 15.104 14.0418 15.2647 14.5305 15.6958C14.9051 16.0255 15.1983 16.0593 15.5079 15.8057C15.6707 15.6705 15.7196 15.5606 15.7196 15.3069C15.7196 15.0449 15.6626 14.9265 15.3775 14.6391C14.5712 13.8275 13.3739 13.5147 12.364 13.8613Z" fill="#131313"/>
      <path d="M21.8606 13.8525C21.3393 14.047 20.6714 14.4866 20.4026 14.8163C20.142 15.1376 20.1339 15.5011 20.4026 15.7716C20.6714 16.0591 20.9972 16.0422 21.3882 15.7209C22.3492 14.9262 23.066 14.9009 23.9538 15.6364C24.1818 15.8308 24.4425 15.983 24.5239 15.983C24.923 15.983 25.2488 15.6279 25.2488 15.2052C25.2488 14.9347 24.5728 14.3091 23.9619 14.0132C23.2859 13.6835 22.4796 13.6243 21.8606 13.8525Z" fill="#131313"/>
      <path d="M13.5448 29.5016C13.3086 29.7298 13.2272 30.0595 13.3493 30.3216C13.4389 30.533 13.5774 30.6175 14.1394 30.7697C14.3919 30.8373 14.4978 30.9218 14.5874 31.1332C14.7014 31.4122 14.7095 31.4122 15.3367 31.4375L15.9638 31.4629V31.2262C15.9557 30.888 15.7683 30.3977 15.524 30.0595C15.2389 29.6706 14.7421 29.417 14.1801 29.3663C13.7973 29.3325 13.6996 29.3494 13.5448 29.5016Z" fill="#131313"/>
      <path d="M21.3233 29.4419C20.916 29.5518 20.3296 30.1013 20.1667 30.5325C20.0934 30.7269 20.0201 31.0735 20.012 31.3018C19.9957 31.6653 20.0282 31.7499 20.2237 31.9274C20.7043 32.3501 21.3396 32.0204 21.3396 31.3441C21.3396 31.0143 21.5839 30.7861 22.0156 30.7015C22.4717 30.617 22.6346 30.431 22.6427 29.9999C22.6427 29.4334 22.1377 29.2136 21.3233 29.4419Z" fill="#131313"/>
      </g>
    </symbol>
    <symbol id="feature3" width="36" height="36" viewBox="0 0 36 36" fill="none" xmlns="http://www.w3.org/2000/svg">
      <path d="M18.1219 0.120502C18.2123 0.361507 18.393 1.52887 18.393 1.89038C18.393 2.78661 18.0616 3.62259 17.4516 4.27782C16.947 4.82008 16.4424 5.12134 15.2298 5.61088C13.8817 6.16067 13.3244 6.49205 12.6918 7.11716C12.0516 7.75732 11.675 8.45774 11.5395 9.27866C11.3888 10.1749 11.5395 10.8075 11.9989 11.169L12.2324 11.3498L11.8633 11.5833C11.1177 12.0728 9.76206 13.2251 9.52859 13.5791C9.07671 14.2569 9.1219 14.8895 9.63403 15.1456L9.87504 15.2661L9.60391 15.5222C9.19721 15.9063 9.11437 16.1699 9.17462 16.8628C9.21227 17.3222 9.19721 17.5707 9.09177 17.9473C8.96374 18.4368 8.96374 18.4444 9.12943 18.7908C9.29512 19.1297 9.76206 19.559 10.1838 19.7397C10.3872 19.8301 10.3947 19.8603 10.4399 20.5531C10.4625 20.9523 10.5001 22.2251 10.5303 23.3849C10.5529 24.5448 10.6056 25.6067 10.6508 25.7347C10.6884 25.8703 10.8315 26.051 10.9596 26.1414C11.3964 26.4427 11.6976 26.7665 11.8934 27.1431C12.1119 27.5724 12.3529 28.6268 13.0834 32.272L13.5955 34.8326L13.9119 35.1339C14.5144 35.7289 15.6667 36 17.5646 36C19.47 36 20.6073 35.7364 21.2098 35.1414L21.5336 34.8326L22.0006 32.4603C23.0324 27.2711 23.1227 26.9849 23.9286 26.3448C24.1771 26.1414 24.4181 25.8929 24.4633 25.7799C24.516 25.6519 24.5688 24.6653 24.6064 23.1741C24.6365 21.8485 24.6817 20.5381 24.7119 20.2594L24.757 19.7548L25.2466 19.3858C25.8642 18.9113 26.1052 18.482 26.1052 17.8192C26.0976 17.036 25.5855 16.1774 24.6516 15.4092L24.2073 15.0477L24.4257 14.7389C25.337 13.4812 24.7646 11.7414 23.07 10.5816L22.5579 10.2276L22.7462 10.0318C23.5821 9.13556 23.7177 6.46193 23.0173 4.60167C22.5955 3.49456 21.6315 2.28954 20.4491 1.40084C19.8692 0.964016 18.2725 0 18.1294 0C18.0993 0 18.0993 0.0527191 18.1219 0.120502ZM20.2909 2.74895C20.6901 3.14059 21.1721 3.67531 21.3604 3.94644C22.4826 5.51297 22.7688 7.47866 22.0909 8.92469C21.8198 9.51213 21.0064 10.3858 20.2533 10.9054C19.101 11.7038 16.5102 13.0444 14.7027 13.7824C11.7955 14.9649 10.1085 15.1908 9.91269 14.4151C9.83738 14.1213 10.0558 13.8879 10.9821 13.2703C11.8181 12.6979 15.5688 9.9113 15.6365 9.79833C15.6591 9.7682 15.275 9.94142 14.793 10.1824C13.1587 11.0109 12.383 10.8527 12.4206 9.70042C12.4432 8.86444 13.0457 7.91548 13.8817 7.37322C14.0926 7.23766 14.7478 6.9364 15.3503 6.6954C17.3311 5.89707 17.9336 5.49038 18.6039 4.4887C19.0031 3.89372 19.4399 2.79414 19.47 2.3272C19.4775 2.16151 19.5077 2.03347 19.5303 2.03347C19.5529 2.03347 19.8918 2.35732 20.2909 2.74895ZM22.347 11.3046C22.8968 11.6134 23.4692 12.1406 23.7177 12.5548C24.1545 13.3004 23.9286 14.046 22.9872 14.995C21.9629 16.0343 20.2156 17.0285 18.2951 17.6611C16.5252 18.241 14.8307 18.5121 12.4056 18.595L10.8993 18.6477L11.8784 18.708C13.1437 18.7908 15.5914 18.7155 16.5403 18.5649C19.0633 18.1657 21.2098 17.3674 22.7462 16.2678C23.0926 16.0192 23.4541 15.8159 23.552 15.8159C23.8006 15.8159 24.8851 16.8552 25.1035 17.292C25.224 17.5406 25.2541 17.7213 25.2315 17.9623C25.1185 18.964 23.8985 19.4987 20.9537 19.8527C17.3537 20.282 12.6466 19.8603 10.6357 18.9339C9.68675 18.4971 9.52859 18.2485 9.7696 17.5858C9.84491 17.3749 9.85997 17.1264 9.82985 16.7724C9.79219 16.3054 9.79972 16.2452 9.96541 16.072C10.342 15.6653 10.9746 15.4318 13.2943 14.8444C14.1077 14.6335 15.2148 14.3021 15.742 14.1063C17.0223 13.6393 19.4248 12.4268 20.5395 11.6812C21.5863 10.9883 21.737 10.9582 22.347 11.3046ZM12.3453 20.523C13.9269 20.9824 15.3278 21.118 17.9336 21.0653C19.8918 21.0276 21.0968 20.9071 22.8365 20.5983C23.1905 20.5381 23.4993 20.4854 23.537 20.4854C23.6198 20.4854 23.5972 23.3774 23.5068 24.1381C23.4089 24.9439 23.1905 25.569 22.957 25.7197C22.716 25.8778 21.511 26.0435 19.8993 26.1339C16.593 26.3146 13.1964 26.1339 12.142 25.7121C11.5696 25.4787 11.5093 25.1774 11.5018 22.3833C11.5018 20.523 11.5169 20.2669 11.6148 20.3046C11.675 20.3272 12.0064 20.4251 12.3453 20.523ZM14.1303 26.9247C14.6725 26.9925 15.26 27.0603 15.4407 27.0828L15.7646 27.1205L15.4784 27.4368C15.1093 27.836 14.5445 28.6343 14.3411 29.041C14.1077 29.5079 14.0324 29.5381 13.6859 29.3498L13.3922 29.1841L13.2265 28.1598C13.1361 27.6025 13.0382 27.0678 13.0156 26.9774C12.9478 26.7816 12.8801 26.7816 14.1303 26.9247ZM22.1587 26.8418C22.1587 26.8569 22.1211 27.0527 22.0834 27.2711C22.0382 27.4971 21.8499 28.7247 21.6616 30.005C21.2775 32.6787 21.0215 33.9364 20.788 34.3582C20.4642 34.923 19.6884 35.2544 18.4307 35.3598C17.9411 35.3975 16.465 35.2996 16.3821 35.2243C16.3219 35.1565 17.6173 33.5523 17.8206 33.4469C18.0089 33.3414 18.0616 33.3565 18.7018 33.6879C19.4474 34.0795 19.824 34.1397 19.824 33.8912C19.824 33.6427 19.6282 33.4017 19.1462 33.0703C18.7018 32.754 18.5437 32.5732 18.5437 32.3623C18.5437 32.3021 18.7621 31.9632 19.0257 31.6092C19.2893 31.2552 19.6734 30.6904 19.8692 30.3515L20.2382 29.7414L20.5771 29.7866C21.2625 29.8845 21.4432 29.877 21.4206 29.7264C21.4056 29.651 21.2775 29.4326 21.1344 29.2519C20.9914 29.0636 20.8784 28.8753 20.8784 28.8377C20.8784 28.6946 21.5788 27.3766 21.8047 27.0979C22.0006 26.8569 22.1587 26.7364 22.1587 26.8418ZM17.4516 27.4444C17.8282 27.6929 19.2441 28.9205 19.3344 29.0711C19.3721 29.1389 17.9185 31.4134 17.6324 31.7372C17.6022 31.7749 17.4441 31.6996 17.2859 31.5791C17.1278 31.451 16.5403 31.0444 15.9755 30.6753L14.9587 30.005L15.5688 28.9732C16.6533 27.1582 16.6307 27.1883 16.8642 27.1883C16.9847 27.1883 17.2483 27.3013 17.4516 27.4444ZM20.306 27.7155C20.0424 28.0393 19.824 28.2427 19.7336 28.2427C19.5378 28.2427 19.2215 28.0695 18.6868 27.6778L18.2424 27.354L19.1311 27.3013C19.6131 27.2787 20.0801 27.2485 20.1629 27.2335C20.7654 27.1356 20.7654 27.1431 20.306 27.7155ZM14.6123 31.3381C15.3052 31.6092 16.4801 32.2494 16.819 32.5356C17.06 32.7314 17.06 32.7464 16.9621 32.9874C16.9018 33.123 16.6985 33.4845 16.4951 33.7933C16.2993 34.0946 16.0734 34.4711 15.9905 34.6293C15.7495 35.0962 15.6742 35.1339 15.1771 34.9983C14.6424 34.8402 14.3562 34.569 14.2056 34.0795C14.0022 33.3941 13.6784 31.4586 13.716 31.1573C13.7311 31.0444 14.0474 31.1121 14.6123 31.3381Z" fill="black"/>
    </symbol>
    <symbol id="feature2"width="36" height="36" viewBox="0 0 36 36" fill="none" xmlns="http://www.w3.org/2000/svg">
      <path d="M15.9495 0.615261C11.4785 1.27831 7.79691 3.76068 6.4423 7.0112C6.01016 8.03811 5.89381 8.66881 5.89381 9.90595C5.90212 10.8197 5.93536 11.1593 6.07664 11.6525C6.36751 12.6228 6.57527 13.1161 7.00742 13.8114L7.40632 14.4583L6.95755 15.0082C3.40897 19.423 3.01837 25.633 5.97691 30.525C7.08221 32.3605 8.88559 34.1636 10.6474 35.2148L11.171 35.5221L18.3346 35.4655L25.5066 35.4008L25.8473 35.2148C27.0357 34.5437 28.7144 33.0478 29.6535 31.8349C31.0663 29.9913 31.9888 27.8405 32.3794 25.5117C32.5123 24.6789 32.5123 22.2127 32.3711 21.4284C31.9472 19.0107 31.0414 16.9407 29.612 15.1052C29.3377 14.7575 29.1217 14.4664 29.1217 14.4421C29.1217 14.426 29.2712 14.1753 29.4458 13.8923C29.853 13.2454 30.2186 12.4126 30.4181 11.6849C30.6425 10.8763 30.6425 8.85479 30.4181 8.0462C29.6203 5.17571 27.2269 2.78228 23.8445 1.46428C22.8971 1.09233 21.2765 0.696121 20.2294 0.566746C19.2571 0.453545 16.8554 0.477802 15.9495 0.615261ZM21.0106 1.93326C25.4484 2.79845 28.6978 5.51531 29.2962 8.86287C29.4291 9.61486 29.346 10.8924 29.1217 11.604C28.8973 12.2994 28.4818 13.1161 27.9914 13.8114C27.792 14.0944 27.6258 14.4179 27.6258 14.523C27.6258 14.6281 27.8003 14.903 28.0496 15.178C30.1272 17.4824 31.2242 20.3691 31.2242 23.4903C31.2159 27.04 29.853 30.153 27.2269 32.595C26.7781 33.0154 26.1382 33.541 25.7975 33.7674L25.1742 34.1879L18.3014 34.2121L11.4369 34.2445L10.905 33.9049C8.977 32.6516 7.24011 30.5816 6.27609 28.3822C5.06276 25.6007 4.9381 22.3744 5.92705 19.4797C6.45061 17.9757 7.14869 16.7466 8.21244 15.4529C8.64458 14.9354 8.84404 14.6281 8.84404 14.4826C8.84404 14.3613 8.62796 13.9651 8.34541 13.5527C7.34815 12.1053 6.94093 10.4962 7.18194 8.97608C7.43125 7.43976 8.12933 6.17836 9.41746 4.92504C11.0962 3.29978 13.4397 2.22435 16.1905 1.82006C17.3291 1.65026 19.8471 1.71494 21.0106 1.93326Z" fill="#131313"/>
      <path d="M16.3233 3.35635C12.916 3.91428 10.2484 5.80638 9.37576 8.28875C9.17631 8.84668 9.14307 9.065 9.14307 9.8655C9.14307 10.666 9.17631 10.8843 9.37576 11.4422C9.50042 11.798 9.73311 12.2913 9.89101 12.5419C10.3232 13.2373 10.5143 13.2616 11.3703 12.7441C12.6501 11.9597 14.1211 11.3856 15.6502 11.0703C16.6807 10.8601 18.6586 10.7792 19.7805 10.9086C21.534 11.1107 23.4371 11.7414 24.9579 12.639C25.3901 12.8896 25.8306 13.0999 25.9386 13.0999C26.5702 13.0999 27.3763 11.2805 27.3763 9.8655C27.3763 6.72009 24.3679 4.02748 20.1046 3.35635C19.1988 3.21081 17.1959 3.21081 16.3233 3.35635ZM20.437 4.6501C21.8664 4.95736 23.1795 5.53955 24.1685 6.30771C25.4981 7.33461 26.2128 8.76582 26.0965 10.1485C26.0549 10.6983 25.8472 11.4422 25.7225 11.5231C25.6893 11.5393 25.2239 11.3452 24.692 11.0865C23.5867 10.5528 22.3318 10.1242 21.0603 9.84933C20.2874 9.68761 19.9633 9.66335 18.2348 9.67144C16.5311 9.67144 16.1737 9.6957 15.4341 9.84933C14.1543 10.1242 13.157 10.4639 11.9271 11.046C10.6888 11.6363 10.7553 11.6444 10.5309 10.9167C10.2401 9.97062 10.4229 8.7173 10.988 7.77125C11.2872 7.26993 12.1099 6.43708 12.7083 6.0247C13.8468 5.24037 14.8441 4.88459 16.9882 4.49646C17.4286 4.41561 19.8719 4.52881 20.437 4.6501Z" fill="#131313"/>


    <!-- LOGO -->
    
    <symbol id="logo-mobile" viewBox="0 0 34 32">
      <path fill="#f8d24e" d="M17.184 14.109c1.613-4.366-1.727-6.756-3.942-8.327-.423-.321-.847-.621-1.19-.895A4.161 4.161 0 0 1 10.718.576a.447.447 0 0 0-.132-.455.463.463 0 0 0-.466-.094 7.478 7.478 0 0 0-2.054 1.22 4.857 4.857 0 0 0-1.901 3.846 5.639 5.639 0 0 0-1.097 1.144 4.193 4.193 0 0 0-.809 2.681 5.3 5.3 0 0 0-1.613 4.987 1.433 1.433 0 0 0 .753 2.664h.03v2.483a.947.947 0 0 0 .953.95h.741l1.207 10.43a.952.952 0 0 0 .944.845h5.022a.96.96 0 0 0 .948-.844l1.207-10.43h.741a.947.947 0 0 0 .953-.95V16.57h.03a1.447 1.447 0 0 0 1.337-1.996 1.411 1.411 0 0 0-.316-.47l-.013.004zM6.315 6.188c.61 2.284 2.964 3.184 5.111 3.986a.463.463 0 0 0 .645-.617.467.467 0 0 0-.319-.227C9.44 8.456 7.26 7.641 7.095 5.306c-.039-.642.082-1.283.352-1.867s.68-1.093 1.194-1.481a6.874 6.874 0 0 1 1.033-.709 5.362 5.362 0 0 0 0 .878 4.994 4.994 0 0 0 1.786 3.476c.351.3.788.608 1.27.937 1.114.798 2.38 1.689 3.184 2.897a4.512 4.512 0 0 1 .462 4.285h-1.871c-3.857 0-8.29-1.064-9.167-4.045a3.414 3.414 0 0 1 .999-3.466l-.021-.021zm3.472 14.394 1.414 1.41-1.414 1.41-1.414-1.419 1.414-1.402zm3.243 3.704-1.169 1.165-1.414-1.41 1.414-1.406 1.228 1.22-.059.431zM9.787 27.52l-1.414-1.41 1.414-1.41 1.414 1.41-1.414 1.41zm-.648-3.471-1.414 1.41-1.177-1.174-.051-.422 1.228-1.22 1.414 1.406zM7.073 26.11l-.284.283-.072-.642.356.359zm-.148 1.444.8-.798 1.554 1.562a.72.72 0 0 0 .03.093H7.023l-.097-.857zm4.928-.798.8.798-.097.845h-2.35l1.647-1.643zm.932-.363-.284-.283.36-.359-.076.642zm.423-3.691-.707-.718.898-.895-.191 1.613zm-1.359-1.36-1.342-1.334h2.684l-1.342 1.334zm-4.128 0-1.342-1.334h2.684l-1.342 1.334zm4.572 9.02H7.276c-.008-.001-.015-.004-.02-.01s-.009-.012-.01-.02l-.119-1.013h5.318l-.114 1.013c-.001.008-.005.016-.011.021s-.014.008-.023.008h-.004zm3.883-14.711h-1.474a.47.47 0 0 0-.355.117.46.46 0 0 0 .355.797h.525v2.483c-.001.008-.005.016-.011.021s-.014.008-.023.008H4.366c-.008 0-.016-.003-.023-.008s-.01-.013-.011-.021v-2.483h8.388a.46.46 0 0 0 0-.916H3.405a.516.516 0 0 1-.527-.31.53.53 0 0 1 0-.422.533.533 0 0 1 .312-.285.506.506 0 0 1 .215-.025h.961a.46.46 0 0 0 0-.916h-.847a4.51 4.51 0 0 1 .923-3.674c.296.921 1.059 2.179 2.964 3.18 1.791.933 4.162 1.41 7.046 1.41h1.694a.516.516 0 0 1 .527.31.526.526 0 0 1 0 .422.533.533 0 0 1-.312.285.506.506 0 0 1-.215.025h.03zM19.859 28.392l-.342.525.007.004.335-.529zm3.682.177.626-.014-.016-.725-.715.121.105.617zm.043 1.926.159.606.478-.126-.011-.494-.626.014zm-4.832.092.141-.61-.004-.001-.137.611zm-2.385-1.064.405-.478-.001-.001-.404.478zm-.862-1.957.626.003v-.003h-.626zm.299-1.37-.562-.276v.001l.562.276zm1.921-1.639.222.586.002-.001-.224-.585zm6.152-.159.624.049.041-.529-.515-.128-.151.608zm-.153 1.963-.117.615.687.13.054-.697-.624-.049zm-1.67-.804c-.94 0-1.73.1-2.307.354-.296.13-.565.313-.761.571a1.474 1.474 0 0 0-.298.905h1.252c0-.073.018-.114.044-.149.032-.043.106-.111.267-.182.336-.148.916-.248 1.803-.248v-1.252zm-3.366 1.832c0 .644.289 1.176.829 1.528l.684-1.049a.508.508 0 0 1-.26-.478h-1.252zm.836 1.532c.512.324 1.186.446 1.944.446v-1.253c-.654 0-1.051-.111-1.273-.251l-.67 1.058zm1.943.445c.743 0 1.469-.06 2.178-.18l-.21-1.235c-.637.108-1.293.162-1.968.162v1.253zm1.448-.783.043 1.926 1.252-.028-.043-1.926-1.252.028zm.509 1.307a9.327 9.327 0 0 1-2.373.285v1.252c.96 0 1.858-.107 2.691-.326l-.319-1.211zm-2.372.285c-.885 0-1.601-.07-2.159-.198l-.281 1.221c.681.157 1.498.23 2.44.23v-1.252zm-2.163-.199c-.598-.134-1.029-.276-1.317-.416l-.55 1.125c.413.202.952.37 1.594.513l.273-1.222zm-1.318-.416a3.813 3.813 0 0 1-.799-.514l-.81.955c.313.265.667.493 1.06.685l.55-1.125zm-.8-.515c-.426-.36-.644-.83-.64-1.476l-1.252-.006c-.005.985.352 1.82 1.084 2.438l.809-.957zm-.64-1.479c0-.421.083-.782.236-1.094l-1.125-.551a3.701 3.701 0 0 0-.364 1.645h1.252zm.235-1.094c.285-.579.788-1.029 1.581-1.33l-.444-1.171c-1.034.392-1.811 1.035-2.26 1.948l1.124.553zm1.583-1.33c.833-.32 1.763-.484 2.797-.484v-1.253c-1.168 0-2.252.186-3.246.568l.449 1.169zm2.797-.485c1.054 0 2.047.117 2.981.348l.301-1.216a13.586 13.586 0 0 0-3.282-.385v1.253zm2.507-.308-.153 1.963 1.249.097.153-1.963-1.249-.097zm.588 1.397a9.646 9.646 0 0 0-1.786-.188v1.252c.441 0 .957.053 1.553.166l.233-1.231zm6.11 1-.003.626.636.004-.007-.636-.626.007zm-.269-.813-.426.459.005.005.421-.464zm-1.559.061.434.452.005-.004-.438-.447zm-.38.74-.618-.102-.119.724.733.004.003-.626zm4.606 3.339.378.499.225-.171.021-.282-.624-.047zm-1.352.502-.135-.612-.004.001.138.611zm-4.697-.171-.214.589.005.002.208-.59zm-1.07-.569-.389.491.008.006.381-.497zm-.716-.899-.561.278.001.003.56-.28zm.734-3.798.416.468-.417-.467zm5.725-.679.25-.574-.006-.003-.245.576zm1.437 1.321-.563.274.002.003.562-.277zm.244 1.095.625.045.002-.023v-.023h-.626zm-.073 1.009-.003.626.585.003.042-.584-.625-.045zm-4.96-.025.003-.626-.817-.004.208.79.606-.16zm.71.875-.308.545.003.001.306-.547zm3.803-.214v-.626h-.125l-.116.048.241.578zm.331 0 .624.047.05-.673h-.675v.626zm-1.888-1.78c-.005-.453-.109-.939-.475-1.271l-.841.928c-.007-.007.007.001.025.055.019.057.037.153.039.301l1.252-.013zm-.469-1.266c-.329-.305-.76-.406-1.184-.406v1.252c.244 0 .318.058.332.071l.852-.918zm-1.184-.406c-.466 0-.9.146-1.239.479l.877.895c.068-.067.169-.121.363-.121v-1.252zm-1.235.474a1.91 1.91 0 0 0-.563 1.09l1.236.203a.666.666 0 0 1 .195-.39l-.867-.904zm.051 1.818 2.208.012.007-1.253-2.208-.012-.007 1.253zm4.23 2.214c-.137.104-.472.249-1.108.389l.269 1.223c.661-.145 1.227-.335 1.595-.614l-.757-.998zm-1.111.39a7.946 7.946 0 0 1-1.752.205v1.252c.662 0 1.338-.079 2.028-.236l-.277-1.222zm-1.752.205c-.59 0-1.076-.028-1.464-.08l-.167 1.241c.461.062 1.006.091 1.631.091v-1.252zm-1.464-.08a5.672 5.672 0 0 1-1.135-.276l-.417 1.181c.455.161.917.273 1.385.336l.167-1.241zm-1.129-.274a3.363 3.363 0 0 1-.903-.477l-.762.994c.357.274.772.492 1.238.661l.427-1.177zm-.895-.471a1.987 1.987 0 0 1-.544-.688l-1.12.56c.221.441.515.815.887 1.11l.777-.982zm-.543-.686c-.132-.266-.21-.609-.21-1.05h-1.253c0 .587.105 1.129.34 1.605l1.123-.555zm-.211-1.049c0-.441.079-.83.23-1.176l-1.149-.499a4.163 4.163 0 0 0-.333 1.674h1.253zm.23-1.176c.158-.364.351-.633.57-.827l-.833-.935a3.56 3.56 0 0 0-.886 1.264l1.149.499zm.57-.828c.673-.6 1.7-.948 3.179-.948v-1.253c-1.66 0-3.031.39-4.013 1.266l.834.935zm3.179-.948c.664 0 1.29.126 1.884.378l.489-1.153a6.018 6.018 0 0 0-2.373-.478v1.253zm1.878.376c.554.242.912.585 1.124 1.021l1.126-.548c-.359-.738-.959-1.276-1.75-1.621l-.501 1.148zm1.126 1.024c.117.237.18.506.18.817h1.252c0-.487-.1-.948-.309-1.372l-1.123.555zm.182.772-.073 1.009 1.249.091.073-1.009-1.249-.091zm.554.429-4.96-.024-.006 1.252 4.96.024.006-1.252zm-5.569.761c.146.555.505.976 1.007 1.26l.616-1.09c-.248-.14-.363-.302-.412-.489l-1.211.319zm1.01 1.262c.508.284 1.143.398 1.853.398v-1.252c-.595 0-.991-.098-1.242-.238l-.611 1.093zm1.853.397c.762 0 1.598-.206 2.497-.58l-.481-1.156c-.805.335-1.473.484-2.016.484v1.252zm2.256-.532h.33v-1.252h-.33v1.252zm-.294-.673-.116 1.553 1.249.093.116-1.553-1.249-.093z" style="fill:var(--color1, #f8d24e)"/>

    </symbol>
  </defs>
</svg>
